<svg xmlns="http://www.w3.org/2000/svg" aria-labelledby="about-icon-star" height="74" role="img" viewBox="0 0 74 74" width="74" class=""><title id="about-icon-star">Star</title><desc>Star</desc><path d="M35.236 71.645a1.8 1.8 0 113.426 1.11 1.8 1.8 0 01-3.426-1.11zm.87-7.67a2.91 2.91 0 10-1.908-3.642 2.907 2.907 0 001.908 3.642zm-25.619-1.272a1.8 1.8 0 103.173-1.701 1.8 1.8 0 00-3.173 1.701zm6.805-7.261a2.905 2.905 0 101.2-3.925 2.91 2.91 0 00-1.2 3.925zM.075 36.43a1.8 1.8 0 103.45 1.029 1.8 1.8 0 00-3.45-1.029zm9.944-.324a2.91 2.91 0 105.554 1.741 2.91 2.91 0 00-5.554-1.74zm1.272-25.619a1.8 1.8 0 101.702 3.173 1.8 1.8 0 00-1.702-3.173zm7.262 6.805a2.904 2.904 0 102.722 5.132 2.904 2.904 0 00-2.722-5.132zM37.564.075a1.8 1.8 0 10-1.028 3.45 1.8 1.8 0 001.028-3.45zm.33 9.944a2.91 2.91 0 10-1.752 5.55 2.91 2.91 0 001.752-5.55zm25.613 1.272a1.8 1.8 0 10-3.17 1.707 1.8 1.8 0 003.17-1.707zm-6.799 7.262a2.91 2.91 0 10-5.16 2.692 2.91 2.91 0 005.16-2.692zm17.218 19.011a1.8 1.8 0 10-3.453-1.025 1.8 1.8 0 003.453 1.025zm-9.95.33a2.91 2.91 0 10-3.643 1.903 2.898 2.898 0 003.642-1.903zm-1.273 25.613a1.8 1.8 0 10-1.705-3.17 1.8 1.8 0 001.705 3.17zm-7.261-6.799a2.91 2.91 0 10-2.693-5.16 2.91 2.91 0 002.693 5.16zM37.138 20.863l4.975 7.934a.965.965 0 00.744.528l8.702 2.226a.978.978 0 01.552 1.668l-6.121 4.892a.96.96 0 00-.276.888l1.914 9.523a.978.978 0 01-1.428 1.039L37.654 45.6a.967.967 0 00-.906 0l-7.801 4.159a.979.979 0 01-1.429-1.02l1.44-8.714a.984.984 0 00-.287-.87l-6.362-6.157a.978.978 0 01.534-1.675l8.432-1.44a.978.978 0 00.732-.54l3.39-8.468a.979.979 0 011.741-.012z" fill="#30D8A4"/></svg>