<svg xmlns="http://www.w3.org/2000/svg" aria-labelledby="about-icon-recycle" height="50" role="img" viewBox="0 0 54 50" width="54"><title id="about-icon-recycle">Recycle</title><desc>Recycle</desc><path d="M33.776 17.65l17.62 25.767 2.003-3.333-5.794.174c-1.307.04-2.903 3.632-1.57 3.592l5.793-.174c1.073-.032 2.68-2.343 2.002-3.333L36.21 14.578c-.808-1.182-3.158 2.013-2.434 3.073zM28.125 43.894a1.317 1.317 0 11.001-2.635 1.317 1.317 0 010 2.635zM33.961 44.14a1.701 1.701 0 110-3.402 1.701 1.701 0 010 3.402zM40.822 44.386a2.085 2.085 0 11.002-4.17 2.085 2.085 0 01-.002 4.17zM14.283 23.832a1.316 1.316 0 11-2.194-1.456 1.316 1.316 0 012.194 1.456zM17.716 19.107a1.7 1.7 0 11-2.834-1.88 1.7 1.7 0 012.834 1.88zM21.716 13.526a2.085 2.085 0 11-3.474-2.307 2.085 2.085 0 013.474 2.307zM8.32 28.434L.511 41.471c-.194.325-1.061 2.317.027 2.285l18.891-.569c1.308-.039 2.904-3.632 1.57-3.591l-18.89.568.027 2.284L9.945 29.41c1.232-2.058-.38-3.056-1.625-.977z" fill="#30D8A4"/><path d="M16.874 35.643l4.96 6.411c.244.314.86-.573.649-.845l-4.962-6.411c-.243-.314-.858.572-.647.845z" fill="#30D8A4"/><path d="M16.874 35.643l4.96 6.411c.244.314.86-.573.649-.845l-4.962-6.411c-.243-.314-.858.572-.647.845z" stroke="#30D8A4" stroke-width="2.502"/><path d="M17.06 47.465c1.585-2.189 3.17-4.377 4.757-6.564.232-.322.876.545.673.823l-4.756 6.565c-.233.32-.876-.546-.675-.824z" fill="#30D8A4"/><path d="M17.06 47.465c1.585-2.189 3.17-4.377 4.757-6.564.232-.322.876.545.673.823l-4.756 6.565c-.233.32-.876-.546-.675-.824z" stroke="#30D8A4" stroke-width="2.502"/><path d="M31.936 21.64l2.867-7.583c.142-.371-.937-.432-1.058-.11l-2.868 7.583c-.14.371.938.432 1.06.11z" fill="#30D8A4"/><path d="M31.936 21.64l2.867-7.583c.142-.371-.937-.432-1.058-.11l-2.868 7.583c-.14.371.938.432 1.06.11z" stroke="#30D8A4" stroke-width="2.502"/><path d="M41.913 15.296c-2.695-.206-5.389-.412-8.083-.62-.396-.03.006-1.03.349-1.005l8.083.62c.396.03-.006 1.031-.35 1.005z" fill="#30D8A4"/><path d="M41.913 15.296c-2.695-.206-5.389-.412-8.083-.62-.396-.03.006-1.03.349-1.005l8.083.62c.396.03-.006 1.031-.35 1.005z" stroke="#30D8A4" stroke-width="2.502"/><path d="M31.994 7.297L27.37.757c-.483-.683-1.416.186-1.724.607l-2.85 3.892c-.388.53-1.203 1.79-.71 2.467.49.675 1.41-.176 1.724-.606l2.85-3.893-1.724.607 4.622 6.54c.833 1.178 3.172-2.03 2.435-3.074z" fill="#30D8A4"/></svg>