<svg xmlns="http://www.w3.org/2000/svg" aria-labelledby="about-icon-hanger" height="60" role="img" viewBox="0 0 74 60" width="74" class=""><title id="about-icon-hanger">Hanger</title><desc>Hanger</desc><path d="M2.624 34.22a1.221 1.221 0 110-2.442 1.221 1.221 0 010 2.443zm7.609 1.254a1.843 1.843 0 110-3.687 1.843 1.843 0 010 3.687zm7.608 1.016a2.227 2.227 0 11.002-4.455 2.227 2.227 0 01-.002 4.455zm7.609.844a2.44 2.44 0 110-4.88 2.44 2.44 0 010 4.88zm7.608.702a2.51 2.51 0 110-5.019 2.51 2.51 0 010 5.019zm7.609.574a2.451 2.451 0 110-4.903 2.451 2.451 0 010 4.902zm7.608.421a2.242 2.242 0 11.001-4.483 2.242 2.242 0 010 4.483zm7.609.243a1.854 1.854 0 110-3.707 1.854 1.854 0 010 3.707zm7.609.012a1.233 1.233 0 110-2.466 1.233 1.233 0 010 2.466z" fill="#30D8A4"/><path d="M63.457 37.142l-.2 2.398 3.998.334c.089-2.49.584-4.513-1.26-6.535-.835-.918-1.908-1.629-2.75-2.145a6651.24 6651.24 0 00-23.983-14.64c-1.186-.722-1.52-1.221-1.377-2.055.316-1.828-.454-2.997-2.35-3.572-1.802-.546-2.635-1.858-2.345-3.696.285-1.814 1.6-2.935 3.52-2.998 1.806-.058 2.886.767 3.852 2.942.311.702 1.493 1.77 2.338 1.757 1.239-.02 1.66-1.922 1.499-2.983-.61-3.988-3.83-6.255-8.405-5.916-3.457.256-5.961 2.142-6.872 5.176-.945 3.147.133 6.318 2.883 8.48.568.446.993.984 1.084 1.217-.13.22-.695.647-1.428.923-3.71 1.395-7.491 2.791-11.148 4.14-4.028 1.487-8.192 3.024-12.278 4.566-2.266.858-3.976 1.709-5.38 2.68-1.79 1.238-2.949 5.136-2.815 7.04l4.565.38c-.01-1.278.329-3.444 1.305-4.382.983-.944 2.526-1.108 3.766-1.521 1.713-.57 3.386-1.29 5.076-1.925a3091.692 3091.692 0 0017.735-6.703c1.972-.756 3.68-.624 5.377.413a9986.943 9986.943 0 0015.669 9.545l8.329 5.069c.345.21.592.382.803.556.202.166.7.633.765 1.212M73.455 12.098a1.115 1.115 0 01-.045.071c-.251.374-.974.413-1.373.524-.682.188-1.376.327-2.067.472-1.074.226-2.394.469-3.285 1.158-1.894 1.312-2.915 3.427-3.355 5.638-.244 1.222-1.891 1.14-1.958-.158-.113-2.2-.755-4.415-2.325-6.025-.754-.773-1.674-1.362-2.66-1.794-.667-.291-3.398-.834-3.221-1.873.159-.932 1.787-.804 2.42-.887 1.034-.137 2.056-.416 2.986-.896 2.4-1.241 3.698-3.668 4.286-6.218.087-.377.497-.927.912-1.004.573-.106 1.015.704 1.032 1.198.174 4.816 2.636 7.579 7.319 8.519.553.11 1.8.46 1.334 1.275zM13.275 47.493l-.028.046c-.165.245-.638.27-.899.343-.446.123-.9.213-1.351.309-.703.147-1.567.305-2.15.757-1.238.858-1.905 2.241-2.194 3.687-.159.8-1.237.746-1.28-.103-.074-1.44-.494-2.887-1.52-3.94a5.482 5.482 0 00-1.741-1.173c-.436-.191-2.223-.546-2.106-1.226.103-.61 1.168-.525 1.582-.58a5.955 5.955 0 001.954-.587c1.569-.811 2.418-2.398 2.803-4.066.057-.247.325-.606.596-.657.375-.069.664.46.675.784.114 3.15 1.724 4.957 4.787 5.571.362.073 1.177.301.872.835zM20.81 56.63a3.213 3.213 0 11-6.405-.536 3.213 3.213 0 016.405.536z" fill="#30D8A4" class=""/></svg>